<svg width="61" height="61" viewBox="0 0 61 61" fill="none" xmlns="http://www.w3.org/2000/svg">
<path opacity="0.3" d="M47.3512 26.3062C48.0629 25.8487 48.4187 25.2133 48.4187 24.4C48.4187 23.5867 48.0629 22.9513 47.3512 22.4937L32.4825 12.9625C31.72 12.4542 30.9443 12.4155 30.1554 12.8466C29.3664 13.2777 28.973 13.9517 28.975 14.8688V33.9312C28.975 34.8462 29.3695 35.5203 30.1584 35.9534C30.9473 36.3865 31.722 36.3479 32.4825 35.8375L47.3512 26.3062ZM18.3 48.8C16.6225 48.8 15.186 48.2022 13.9904 47.0066C12.7948 45.811 12.198 44.3755 12.2 42.7V6.1C12.2 4.4225 12.7978 2.98595 13.9934 1.79035C15.189 0.594755 16.6245 -0.00202815 18.3 5.17827e-06H54.9C56.5775 5.17827e-06 58.014 0.597805 59.2096 1.7934C60.4052 2.989 61.002 4.42454 61 6.1V42.7C61 44.3775 60.4022 45.814 59.2066 47.0096C58.011 48.2052 56.5755 48.802 54.9 48.8H18.3ZM18.3 42.7H54.9V6.1H18.3V42.7ZM6.1 61C4.4225 61 2.98595 60.4022 1.79035 59.2066C0.594755 58.011 -0.00202815 56.5755 5.17827e-06 54.9V15.25C5.17827e-06 14.3858 0.292805 13.661 0.878405 13.0754C1.46401 12.4898 2.18787 12.198 3.05 12.2C3.91417 12.2 4.63905 12.4928 5.22465 13.0784C5.81025 13.664 6.10204 14.3879 6.1 15.25V54.9H45.75C46.6142 54.9 47.339 55.1928 47.9246 55.7784C48.5102 56.364 48.802 57.0879 48.8 57.95C48.8 58.8142 48.5072 59.539 47.9216 60.1246C47.336 60.7102 46.6121 61.002 45.75 61H6.1Z" fill="#262626"/>
</svg>
