<svg width="152" height="33" viewBox="0 0 152 33" fill="none" xmlns="http://www.w3.org/2000/svg">
<path opacity="0.4" d="M11.25 33C8.14091 33 5.48864 31.9206 3.29318 29.7619C1.09773 27.5894 0 24.9425 0 21.8212C0 19.14 0.797727 16.7475 2.39318 14.6438C4.00227 12.54 6.10227 11.1994 8.69318 10.6219C9.55227 7.45937 11.2568 4.90187 13.8068 2.94937C16.3705 0.983125 19.2682 0 22.5 0C26.4955 0 29.8773 1.4025 32.6455 4.2075C35.4273 6.99875 36.8182 10.4087 36.8182 14.4375C39.1773 14.7125 41.1273 15.7437 42.6682 17.5312C44.2227 19.2913 45 21.3538 45 23.7188C45 26.3037 44.1068 28.4969 42.3205 30.2981C40.5341 32.0994 38.3591 33 35.7955 33H24.5455C23.4273 33 22.4659 32.5944 21.6614 31.7831C20.8568 30.9856 20.4545 30.0163 20.4545 28.875V18.2531L17.1818 21.45L14.3182 18.5625L22.5 10.3125L30.6818 18.5625L27.8182 21.45L24.5455 18.2531V28.875H35.7955C37.2273 28.875 38.4341 28.3731 39.4159 27.3694C40.4114 26.3794 40.9091 25.1625 40.9091 23.7188C40.9091 22.275 40.4114 21.0581 39.4159 20.0681C38.4341 19.0644 37.2273 18.5625 35.7955 18.5625H32.7273V14.4375C32.7273 11.5913 31.7318 9.1575 29.7409 7.13625C27.75 5.12875 25.3364 4.125 22.5 4.125C19.6773 4.125 17.2636 5.12875 15.2591 7.13625C13.2682 9.1575 12.2727 11.5913 12.2727 14.4375H11.25C9.27273 14.4375 7.58864 15.1456 6.19773 16.5619C4.79318 17.9644 4.09091 19.6625 4.09091 21.6562C4.09091 23.65 4.79318 25.3687 6.19773 26.8125C7.58864 28.1875 9.27273 28.875 11.25 28.875H16.3636V33" fill="#262626"/>
<path opacity="0.4" d="M68.45 11.47V17.77C68.45 18.4 68.605 18.885 68.915 19.225C69.225 19.565 69.68 19.735 70.28 19.735C70.88 19.735 71.34 19.565 71.66 19.225C71.98 18.885 72.14 18.4 72.14 17.77V11.47H74.705V17.755C74.705 18.695 74.505 19.49 74.105 20.14C73.705 20.79 73.165 21.28 72.485 21.61C71.815 21.94 71.065 22.105 70.235 22.105C69.405 22.105 68.66 21.945 68 21.625C67.35 21.295 66.835 20.805 66.455 20.155C66.075 19.495 65.885 18.695 65.885 17.755V11.47H68.45ZM79.2212 14.815C79.4712 14.425 79.8162 14.11 80.2562 13.87C80.6962 13.63 81.2112 13.51 81.8012 13.51C82.4912 13.51 83.1162 13.685 83.6762 14.035C84.2362 14.385 84.6762 14.885 84.9962 15.535C85.3262 16.185 85.4912 16.94 85.4912 17.8C85.4912 18.66 85.3262 19.42 84.9962 20.08C84.6762 20.73 84.2362 21.235 83.6762 21.595C83.1162 21.945 82.4912 22.12 81.8012 22.12C81.2212 22.12 80.7062 22 80.2562 21.76C79.8162 21.52 79.4712 21.21 79.2212 20.83V25.99H76.6562V13.63H79.2212V14.815ZM82.8812 17.8C82.8812 17.16 82.7012 16.66 82.3412 16.3C81.9912 15.93 81.5562 15.745 81.0362 15.745C80.5262 15.745 80.0912 15.93 79.7312 16.3C79.3812 16.67 79.2062 17.175 79.2062 17.815C79.2062 18.455 79.3812 18.96 79.7312 19.33C80.0912 19.7 80.5262 19.885 81.0362 19.885C81.5462 19.885 81.9812 19.7 82.3412 19.33C82.7012 18.95 82.8812 18.44 82.8812 17.8ZM89.5518 10.9V22H86.9868V10.9H89.5518ZM95.3707 22.12C94.5507 22.12 93.8107 21.945 93.1507 21.595C92.5007 21.245 91.9857 20.745 91.6057 20.095C91.2357 19.445 91.0507 18.685 91.0507 17.815C91.0507 16.955 91.2407 16.2 91.6207 15.55C92.0007 14.89 92.5207 14.385 93.1807 14.035C93.8407 13.685 94.5807 13.51 95.4007 13.51C96.2207 13.51 96.9607 13.685 97.6207 14.035C98.2807 14.385 98.8007 14.89 99.1807 15.55C99.5607 16.2 99.7507 16.955 99.7507 17.815C99.7507 18.675 99.5557 19.435 99.1657 20.095C98.7857 20.745 98.2607 21.245 97.5907 21.595C96.9307 21.945 96.1907 22.12 95.3707 22.12ZM95.3707 19.9C95.8607 19.9 96.2757 19.72 96.6157 19.36C96.9657 19 97.1407 18.485 97.1407 17.815C97.1407 17.145 96.9707 16.63 96.6307 16.27C96.3007 15.91 95.8907 15.73 95.4007 15.73C94.9007 15.73 94.4857 15.91 94.1557 16.27C93.8257 16.62 93.6607 17.135 93.6607 17.815C93.6607 18.485 93.8207 19 94.1407 19.36C94.4707 19.72 94.8807 19.9 95.3707 19.9ZM100.751 17.8C100.751 16.94 100.911 16.185 101.231 15.535C101.561 14.885 102.006 14.385 102.566 14.035C103.126 13.685 103.751 13.51 104.441 13.51C105.031 13.51 105.546 13.63 105.986 13.87C106.436 14.11 106.781 14.425 107.021 14.815V13.63H109.586V22H107.021V20.815C106.771 21.205 106.421 21.52 105.971 21.76C105.531 22 105.016 22.12 104.426 22.12C103.746 22.12 103.126 21.945 102.566 21.595C102.006 21.235 101.561 20.73 101.231 20.08C100.911 19.42 100.751 18.66 100.751 17.8ZM107.021 17.815C107.021 17.175 106.841 16.67 106.481 16.3C106.131 15.93 105.701 15.745 105.191 15.745C104.681 15.745 104.246 15.93 103.886 16.3C103.536 16.66 103.361 17.16 103.361 17.8C103.361 18.44 103.536 18.95 103.886 19.33C104.246 19.7 104.681 19.885 105.191 19.885C105.701 19.885 106.131 19.7 106.481 19.33C106.841 18.96 107.021 18.455 107.021 17.815ZM111.082 17.8C111.082 16.94 111.242 16.185 111.562 15.535C111.892 14.885 112.337 14.385 112.897 14.035C113.457 13.685 114.082 13.51 114.772 13.51C115.322 13.51 115.822 13.625 116.272 13.855C116.732 14.085 117.092 14.395 117.352 14.785V10.9H119.917V22H117.352V20.8C117.112 21.2 116.767 21.52 116.317 21.76C115.877 22 115.362 22.12 114.772 22.12C114.082 22.12 113.457 21.945 112.897 21.595C112.337 21.235 111.892 20.73 111.562 20.08C111.242 19.42 111.082 18.66 111.082 17.8ZM117.352 17.815C117.352 17.175 117.172 16.67 116.812 16.3C116.462 15.93 116.032 15.745 115.522 15.745C115.012 15.745 114.577 15.93 114.217 16.3C113.867 16.66 113.692 17.16 113.692 17.8C113.692 18.44 113.867 18.95 114.217 19.33C114.577 19.7 115.012 19.885 115.522 19.885C116.032 19.885 116.462 19.7 116.812 19.33C117.172 18.96 117.352 18.455 117.352 17.815ZM132.106 11.47V13.525H127.816V15.745H131.026V17.74H127.816V22H125.251V11.47H132.106ZM134.895 12.76C134.445 12.76 134.075 12.63 133.785 12.37C133.505 12.1 133.365 11.77 133.365 11.38C133.365 10.98 133.505 10.65 133.785 10.39C134.075 10.12 134.445 9.985 134.895 9.985C135.335 9.985 135.695 10.12 135.975 10.39C136.265 10.65 136.41 10.98 136.41 11.38C136.41 11.77 136.265 12.1 135.975 12.37C135.695 12.63 135.335 12.76 134.895 12.76ZM136.17 13.63V22H133.605V13.63H136.17ZM140.743 10.9V22H138.178V10.9H140.743ZM150.642 17.68C150.642 17.92 150.627 18.17 150.597 18.43H144.792C144.832 18.95 144.997 19.35 145.287 19.63C145.587 19.9 145.952 20.035 146.382 20.035C147.022 20.035 147.467 19.765 147.717 19.225H150.447C150.307 19.775 150.052 20.27 149.682 20.71C149.322 21.15 148.867 21.495 148.317 21.745C147.767 21.995 147.152 22.12 146.472 22.12C145.652 22.12 144.922 21.945 144.282 21.595C143.642 21.245 143.142 20.745 142.782 20.095C142.422 19.445 142.242 18.685 142.242 17.815C142.242 16.945 142.417 16.185 142.767 15.535C143.127 14.885 143.627 14.385 144.267 14.035C144.907 13.685 145.642 13.51 146.472 13.51C147.282 13.51 148.002 13.68 148.632 14.02C149.262 14.36 149.752 14.845 150.102 15.475C150.462 16.105 150.642 16.84 150.642 17.68ZM148.017 17.005C148.017 16.565 147.867 16.215 147.567 15.955C147.267 15.695 146.892 15.565 146.442 15.565C146.012 15.565 145.647 15.69 145.347 15.94C145.057 16.19 144.877 16.545 144.807 17.005H148.017Z" fill="black"/>
</svg>
